<mxfile host="app.diagrams.net" modified="2022-10-01T13:31:23.067Z" agent="5.0 (Macintosh; Intel Mac OS X 10_15_7) AppleWebKit/537.36 (KHTML, like Gecko) Chrome/105.0.0.0 Safari/537.36" etag="D47W5d5o5kPjo4vdNp2V" version="20.4.0" type="github">
  <diagram id="U4iVKpF0wCfnUkFfjQ_V" name="第 1 页">
    <mxGraphModel dx="757" dy="517" grid="1" gridSize="10" guides="1" tooltips="1" connect="1" arrows="1" fold="1" page="1" pageScale="1" pageWidth="827" pageHeight="1169" math="0" shadow="0">
      <root>
        <mxCell id="0" />
        <mxCell id="1" parent="0" />
        <mxCell id="OuIgDDW4kMaR_B51C9q3-41" value="" style="rounded=0;whiteSpace=wrap;html=1;fontSize=11;fontColor=#FF3333;dashed=1;" vertex="1" parent="1">
          <mxGeometry x="140" y="445" width="390" height="75" as="geometry" />
        </mxCell>
        <mxCell id="OuIgDDW4kMaR_B51C9q3-1" value="CLOSED" style="rounded=0;whiteSpace=wrap;html=1;fillColor=#dae8fc;strokeColor=#6c8ebf;" vertex="1" parent="1">
          <mxGeometry x="140" y="160" width="120" height="20" as="geometry" />
        </mxCell>
        <mxCell id="OuIgDDW4kMaR_B51C9q3-2" value="SYN_SENT" style="rounded=0;whiteSpace=wrap;html=1;fillColor=#dae8fc;strokeColor=#6c8ebf;" vertex="1" parent="1">
          <mxGeometry x="140" y="180" width="120" height="40" as="geometry" />
        </mxCell>
        <mxCell id="OuIgDDW4kMaR_B51C9q3-3" value="CLOSED" style="rounded=0;whiteSpace=wrap;html=1;fillColor=#dae8fc;strokeColor=#6c8ebf;" vertex="1" parent="1">
          <mxGeometry x="414" y="160" width="120" height="20" as="geometry" />
        </mxCell>
        <mxCell id="OuIgDDW4kMaR_B51C9q3-4" value="LISTEN" style="rounded=0;whiteSpace=wrap;html=1;fillColor=#dae8fc;strokeColor=#6c8ebf;" vertex="1" parent="1">
          <mxGeometry x="414" y="180" width="120" height="20" as="geometry" />
        </mxCell>
        <mxCell id="OuIgDDW4kMaR_B51C9q3-5" value="SYN_RCVD" style="rounded=0;whiteSpace=wrap;html=1;fillColor=#dae8fc;strokeColor=#6c8ebf;" vertex="1" parent="1">
          <mxGeometry x="414" y="200" width="120" height="50" as="geometry" />
        </mxCell>
        <mxCell id="OuIgDDW4kMaR_B51C9q3-6" value="&lt;font color=&quot;#ff3333&quot;&gt;SYN&lt;/font&gt; &lt;font color=&quot;#4d9900&quot;&gt;seq&lt;/font&gt;=x" style="endArrow=classic;html=1;rounded=0;exitX=1;exitY=0;exitDx=0;exitDy=0;entryX=0;entryY=0;entryDx=0;entryDy=0;" edge="1" parent="1" source="OuIgDDW4kMaR_B51C9q3-2" target="OuIgDDW4kMaR_B51C9q3-5">
          <mxGeometry width="50" height="50" relative="1" as="geometry">
            <mxPoint x="330" y="200" as="sourcePoint" />
            <mxPoint x="410" y="220" as="targetPoint" />
          </mxGeometry>
        </mxCell>
        <mxCell id="OuIgDDW4kMaR_B51C9q3-9" value="&lt;font color=&quot;#ff3333&quot;&gt;SYN&lt;/font&gt; &lt;font color=&quot;#4d9900&quot;&gt;seq&lt;/font&gt;=y,&lt;font color=&quot;#ff3333&quot;&gt;ACK&lt;/font&gt;=x+1" style="endArrow=classic;html=1;rounded=0;entryX=1;entryY=1;entryDx=0;entryDy=0;exitX=0;exitY=0;exitDx=0;exitDy=0;" edge="1" parent="1" source="OuIgDDW4kMaR_B51C9q3-5" target="OuIgDDW4kMaR_B51C9q3-2">
          <mxGeometry width="50" height="50" relative="1" as="geometry">
            <mxPoint x="410" y="190" as="sourcePoint" />
            <mxPoint x="400" y="280" as="targetPoint" />
          </mxGeometry>
        </mxCell>
        <mxCell id="OuIgDDW4kMaR_B51C9q3-11" value="&lt;font color=&quot;#ff3333&quot;&gt;ACK&lt;/font&gt;=y+1" style="endArrow=classic;html=1;rounded=0;exitX=1;exitY=1;exitDx=0;exitDy=0;entryX=0;entryY=1;entryDx=0;entryDy=0;" edge="1" parent="1" source="OuIgDDW4kMaR_B51C9q3-2" target="OuIgDDW4kMaR_B51C9q3-5">
          <mxGeometry width="50" height="50" relative="1" as="geometry">
            <mxPoint x="290" y="300" as="sourcePoint" />
            <mxPoint x="340" y="250" as="targetPoint" />
          </mxGeometry>
        </mxCell>
        <mxCell id="OuIgDDW4kMaR_B51C9q3-12" value="ESTABLISHED" style="rounded=0;whiteSpace=wrap;html=1;fillColor=#f5f5f5;fontColor=#333333;strokeColor=#666666;" vertex="1" parent="1">
          <mxGeometry x="140" y="250" width="120" height="70" as="geometry" />
        </mxCell>
        <mxCell id="OuIgDDW4kMaR_B51C9q3-13" value="ESTABLISHED" style="rounded=0;whiteSpace=wrap;html=1;fillColor=#f5f5f5;fontColor=#333333;strokeColor=#666666;" vertex="1" parent="1">
          <mxGeometry x="414" y="250" width="120" height="70" as="geometry" />
        </mxCell>
        <mxCell id="OuIgDDW4kMaR_B51C9q3-16" value="&lt;font color=&quot;#4d9900&quot;&gt;seq&lt;/font&gt;=x+1,&lt;font color=&quot;#ff3333&quot;&gt;ACK&lt;/font&gt;=y+1" style="endArrow=classic;html=1;rounded=0;exitX=1;exitY=1;exitDx=0;exitDy=0;entryX=0;entryY=1;entryDx=0;entryDy=0;" edge="1" parent="1">
          <mxGeometry width="50" height="50" relative="1" as="geometry">
            <mxPoint x="260" y="250" as="sourcePoint" />
            <mxPoint x="414" y="279.9999999999999" as="targetPoint" />
          </mxGeometry>
        </mxCell>
        <mxCell id="OuIgDDW4kMaR_B51C9q3-17" value="&lt;font color=&quot;#ff3333&quot;&gt;ACK&lt;/font&gt;=x+2" style="endArrow=classic;html=1;rounded=0;" edge="1" parent="1">
          <mxGeometry width="50" height="50" relative="1" as="geometry">
            <mxPoint x="410" y="280" as="sourcePoint" />
            <mxPoint x="260" y="300" as="targetPoint" />
          </mxGeometry>
        </mxCell>
        <mxCell id="OuIgDDW4kMaR_B51C9q3-18" value="" style="endArrow=none;dashed=1;html=1;rounded=0;" edge="1" parent="1">
          <mxGeometry width="50" height="50" relative="1" as="geometry">
            <mxPoint x="120" y="250" as="sourcePoint" />
            <mxPoint x="530" y="250" as="targetPoint" />
          </mxGeometry>
        </mxCell>
        <mxCell id="OuIgDDW4kMaR_B51C9q3-20" value="ESTABLISHED" style="rounded=0;whiteSpace=wrap;html=1;fillColor=#dae8fc;strokeColor=#6c8ebf;" vertex="1" parent="1">
          <mxGeometry x="140" y="220" width="120" height="30" as="geometry" />
        </mxCell>
        <mxCell id="OuIgDDW4kMaR_B51C9q3-21" value="三次握手" style="text;html=1;strokeColor=none;fillColor=none;align=center;verticalAlign=middle;whiteSpace=wrap;rounded=0;" vertex="1" parent="1">
          <mxGeometry x="120" y="190" width="20" height="30" as="geometry" />
        </mxCell>
        <mxCell id="OuIgDDW4kMaR_B51C9q3-22" value="" style="endArrow=none;dashed=1;html=1;rounded=0;entryX=1;entryY=0;entryDx=0;entryDy=0;" edge="1" parent="1" target="OuIgDDW4kMaR_B51C9q3-26">
          <mxGeometry width="50" height="50" relative="1" as="geometry">
            <mxPoint x="120" y="320" as="sourcePoint" />
            <mxPoint x="550" y="320" as="targetPoint" />
          </mxGeometry>
        </mxCell>
        <mxCell id="OuIgDDW4kMaR_B51C9q3-23" value="数据传输" style="text;html=1;strokeColor=none;fillColor=none;align=center;verticalAlign=middle;whiteSpace=wrap;rounded=0;" vertex="1" parent="1">
          <mxGeometry x="120" y="270" width="20" height="30" as="geometry" />
        </mxCell>
        <mxCell id="OuIgDDW4kMaR_B51C9q3-24" value="FIN_WAIT_1" style="rounded=0;whiteSpace=wrap;html=1;fillColor=#ffe6cc;strokeColor=#d79b00;" vertex="1" parent="1">
          <mxGeometry x="140" y="320" width="120" height="50" as="geometry" />
        </mxCell>
        <mxCell id="OuIgDDW4kMaR_B51C9q3-25" value="FIN_WAIT_2" style="rounded=0;whiteSpace=wrap;html=1;fillColor=#ffe6cc;strokeColor=#d79b00;" vertex="1" parent="1">
          <mxGeometry x="140" y="370" width="120" height="20" as="geometry" />
        </mxCell>
        <mxCell id="OuIgDDW4kMaR_B51C9q3-26" value="ESTABLISHED" style="rounded=0;whiteSpace=wrap;html=1;fillColor=#ffe6cc;strokeColor=#d79b00;" vertex="1" parent="1">
          <mxGeometry x="414" y="320" width="120" height="30" as="geometry" />
        </mxCell>
        <mxCell id="OuIgDDW4kMaR_B51C9q3-27" value="&lt;font color=&quot;#ff3333&quot;&gt;FIN&lt;/font&gt; &lt;font color=&quot;#4d9900&quot;&gt;seq&lt;/font&gt;=x+2,&lt;font color=&quot;#ff3333&quot;&gt;ACK&lt;/font&gt;=y+1" style="endArrow=classic;html=1;rounded=0;entryX=0;entryY=1;entryDx=0;entryDy=0;" edge="1" parent="1" target="OuIgDDW4kMaR_B51C9q3-26">
          <mxGeometry width="50" height="50" relative="1" as="geometry">
            <mxPoint x="260" y="320" as="sourcePoint" />
            <mxPoint x="330" y="360" as="targetPoint" />
          </mxGeometry>
        </mxCell>
        <mxCell id="OuIgDDW4kMaR_B51C9q3-29" value="&lt;font color=&quot;#ff3333&quot;&gt;ACK&lt;/font&gt;=x+3" style="endArrow=classic;html=1;rounded=0;exitX=0;exitY=1;exitDx=0;exitDy=0;entryX=1;entryY=0;entryDx=0;entryDy=0;" edge="1" parent="1" source="OuIgDDW4kMaR_B51C9q3-26" target="OuIgDDW4kMaR_B51C9q3-25">
          <mxGeometry width="50" height="50" relative="1" as="geometry">
            <mxPoint x="360" y="420" as="sourcePoint" />
            <mxPoint x="410" y="370" as="targetPoint" />
          </mxGeometry>
        </mxCell>
        <mxCell id="OuIgDDW4kMaR_B51C9q3-30" value="CLOSED_WAIT" style="rounded=0;whiteSpace=wrap;html=1;fillColor=#ffe6cc;strokeColor=#d79b00;" vertex="1" parent="1">
          <mxGeometry x="414" y="350" width="120" height="20" as="geometry" />
        </mxCell>
        <mxCell id="OuIgDDW4kMaR_B51C9q3-33" value="&lt;font color=&quot;#ff3333&quot;&gt;FIN&lt;/font&gt; &lt;font color=&quot;#4d9900&quot;&gt;seq&lt;/font&gt;=y+1,&lt;font color=&quot;#ff3333&quot;&gt;ACK&lt;/font&gt;=x+3" style="endArrow=classic;html=1;rounded=0;exitX=0;exitY=1;exitDx=0;exitDy=0;entryX=1;entryY=0;entryDx=0;entryDy=0;" edge="1" parent="1">
          <mxGeometry width="50" height="50" relative="1" as="geometry">
            <mxPoint x="414" y="370" as="sourcePoint" />
            <mxPoint x="260" y="390" as="targetPoint" />
          </mxGeometry>
        </mxCell>
        <mxCell id="OuIgDDW4kMaR_B51C9q3-34" value="LAST_ACK" style="rounded=0;whiteSpace=wrap;html=1;fillColor=#ffe6cc;strokeColor=#d79b00;" vertex="1" parent="1">
          <mxGeometry x="414" y="370" width="120" height="40" as="geometry" />
        </mxCell>
        <mxCell id="OuIgDDW4kMaR_B51C9q3-35" value="&lt;font color=&quot;#ff3333&quot;&gt;ACK&lt;/font&gt;=y+2" style="endArrow=classic;html=1;rounded=0;entryX=0;entryY=1;entryDx=0;entryDy=0;" edge="1" parent="1" target="OuIgDDW4kMaR_B51C9q3-34">
          <mxGeometry width="50" height="50" relative="1" as="geometry">
            <mxPoint x="260" y="390" as="sourcePoint" />
            <mxPoint x="340" y="400" as="targetPoint" />
          </mxGeometry>
        </mxCell>
        <mxCell id="OuIgDDW4kMaR_B51C9q3-36" value="TIME_WAIT&lt;br&gt;&lt;font style=&quot;font-size: 9px;&quot;&gt;(&lt;/font&gt;&lt;font size=&quot;1&quot; style=&quot;&quot;&gt;等待&lt;/font&gt;&lt;font style=&quot;font-size: 9px;&quot;&gt;2MSL)&lt;/font&gt;" style="rounded=0;whiteSpace=wrap;html=1;fillColor=#ffe6cc;strokeColor=#d79b00;" vertex="1" parent="1">
          <mxGeometry x="140" y="390" width="120" height="30" as="geometry" />
        </mxCell>
        <mxCell id="OuIgDDW4kMaR_B51C9q3-37" value="CLOSED" style="rounded=0;whiteSpace=wrap;html=1;fillColor=#ffe6cc;strokeColor=#d79b00;" vertex="1" parent="1">
          <mxGeometry x="140" y="420" width="120" height="20" as="geometry" />
        </mxCell>
        <mxCell id="OuIgDDW4kMaR_B51C9q3-38" value="CLOSED" style="rounded=0;whiteSpace=wrap;html=1;fillColor=#ffe6cc;strokeColor=#d79b00;" vertex="1" parent="1">
          <mxGeometry x="414" y="410" width="120" height="30" as="geometry" />
        </mxCell>
        <mxCell id="OuIgDDW4kMaR_B51C9q3-39" value="四次挥手" style="text;html=1;strokeColor=none;fillColor=none;align=center;verticalAlign=middle;whiteSpace=wrap;rounded=0;" vertex="1" parent="1">
          <mxGeometry x="120" y="370" width="20" height="30" as="geometry" />
        </mxCell>
        <mxCell id="OuIgDDW4kMaR_B51C9q3-40" value="&lt;span style=&quot;font-family: &amp;quot;Source Han Sans CN&amp;quot;; background-color: rgb(255, 255, 255); font-size: 11px;&quot;&gt;&lt;font style=&quot;font-size: 11px;&quot;&gt;&lt;font color=&quot;#ff3333&quot;&gt;SYN&lt;/font&gt;（synchronous）：希望建立连接&amp;nbsp;&lt;/font&gt;&lt;/span&gt;&lt;p style=&quot;box-sizing: border-box; margin: 0px; padding: 0px; font-family: &amp;quot;Source Han Sans CN&amp;quot;; background-color: rgb(255, 255, 255); font-size: 11px;&quot;&gt;&lt;font style=&quot;font-size: 11px;&quot;&gt;&lt;font color=&quot;#ff3333&quot;&gt;ACK&lt;/font&gt;（Acknowledgement）：数据已接收，请发送下一个序列数据&lt;/font&gt;&lt;/p&gt;&lt;p style=&quot;box-sizing: border-box; margin: 0px; padding: 0px; font-family: &amp;quot;Source Han Sans CN&amp;quot;; background-color: rgb(255, 255, 255); font-size: 11px;&quot;&gt;&lt;font style=&quot;font-size: 11px;&quot;&gt;&lt;font color=&quot;#ff3333&quot;&gt;FIN&lt;/font&gt;（Finish）：发送方字节流结束，希望关闭连接&lt;/font&gt;&lt;/p&gt;&lt;p style=&quot;box-sizing: border-box; margin: 0px; padding: 0px; font-family: &amp;quot;Source Han Sans CN&amp;quot;; background-color: rgb(255, 255, 255); font-size: 11px;&quot;&gt;&lt;font style=&quot;font-size: 11px;&quot;&gt;&lt;font color=&quot;#4d9900&quot;&gt;seq&lt;/font&gt;（sequence number）：序列编号，随传输的字节数而增加&lt;/font&gt;&lt;/p&gt;&lt;p style=&quot;box-sizing: border-box; margin: 0px; padding: 0px; font-family: &amp;quot;Source Han Sans CN&amp;quot;; background-color: rgb(255, 255, 255); font-size: 11px;&quot;&gt;MSL（Maximum Segment Lifetime）：报文最长存活时间&lt;/p&gt;" style="text;html=1;strokeColor=none;fillColor=none;align=left;verticalAlign=middle;whiteSpace=wrap;rounded=0;fontSize=11;" vertex="1" parent="1">
          <mxGeometry x="150" y="438" width="370" height="90" as="geometry" />
        </mxCell>
      </root>
    </mxGraphModel>
  </diagram>
</mxfile>
